# xmcd
#
# Track frame offsets: 
#        150
#        14306
#        30022
#        46141
#        65048
#        79073
#        97296
#        112436
#        131937
#        148051
#        161347
#
# Disc length: 2351 seconds
#
# Revision: 0
# Processed by: cddbd v1.5.2PL0 Copyright (c) Steve Scherf et al.
# Submitted via: ExactAudioCopyFreeDBPlugin 1.0
#
DISCID=99092d0b
DTITLE=Steve Bailey And The Blue Flames - New Way Of Workin'
DYEAR=2014
DGENRE=Blues
TTITLE0=Who
TTITLE1=What's The Use
TTITLE2=Kiddeo
TTITLE3=Big Man Plays The Blues
TTITLE4=You'll Be Mine
TTITLE5=Said You're Leavin' Me
TTITLE6=Braggin 'Bout My Baby
TTITLE7=Honey Hush
TTITLE8=New Way Of Workin'
TTITLE9=I'm Back In Town
TTITLE10=Louisiana Woman
EXTD=
EXTT0=
EXTT1=
EXTT2=
EXTT3=
EXTT4=
EXTT5=
EXTT6=
EXTT7=
EXTT8=
EXTT9=
EXTT10=
PLAYORDER=
